<?xml version="1.0" encoding="UTF-8" standalone="no"?>
<!DOCTYPE svg PUBLIC "-//W3C//DTD SVG 1.1//EN"
 "http://www.w3.org/Graphics/SVG/1.1/DTD/svg11.dtd">
<!-- Generated by graphviz version 2.40.1 (20161225.0304)
 -->
<!-- Title: dependencies Pages: 1 -->
<svg width="966pt" height="284pt"
 viewBox="0.00 0.00 966.00 284.00" xmlns="http://www.w3.org/2000/svg" xmlns:xlink="http://www.w3.org/1999/xlink">
<g id="graph0" class="graph" transform="scale(1 1) rotate(0) translate(4 280)">
<title>dependencies</title>
<polygon fill="#ffffff" stroke="transparent" points="-4,4 -4,-280 962,-280 962,4 -4,4"/>
<text text-anchor="start" x="458.0091" y="-42.4" font-family="sans-serif" font-weight="bold" font-size="14.00" fill="#000000">Legend</text>
<polygon fill="#ffffb3" stroke="transparent" points="245,-10 245,-30 265,-30 265,-10 245,-10"/>
<text text-anchor="start" x="268.629" y="-15.4" font-family="sans-serif" font-size="14.00" fill="#000000"> &#160;Declarations</text>
<polygon fill="#8dd3c7" stroke="transparent" points="358,-10 358,-30 378,-30 378,-10 358,-10"/>
<text text-anchor="start" x="381.7251" y="-15.4" font-family="sans-serif" font-size="14.00" fill="#000000"> &#160;Module</text>
<polygon fill="#80b1d3" stroke="transparent" points="444,-10 444,-30 464,-30 464,-10 444,-10"/>
<text text-anchor="start" x="467.7812" y="-15.4" font-family="sans-serif" font-size="14.00" fill="#000000"> &#160;Bootstrap</text>
<polygon fill="#fdb462" stroke="transparent" points="541,-10 541,-30 561,-30 561,-10 541,-10"/>
<text text-anchor="start" x="564.6732" y="-15.4" font-family="sans-serif" font-size="14.00" fill="#000000"> &#160;Providers</text>
<polygon fill="#fb8072" stroke="transparent" points="637,-10 637,-30 657,-30 657,-10 637,-10"/>
<text text-anchor="start" x="660.7258" y="-15.4" font-family="sans-serif" font-size="14.00" fill="#000000"> &#160;Exports</text>
<g id="clust1" class="cluster">
<title>cluster_ComponentsModule</title>
<polygon fill="none" stroke="#000000" stroke-dasharray="1,5" points="8,-70 8,-268 950,-268 950,-70 8,-70"/>
</g>
<g id="clust2" class="cluster">
<title>cluster_ComponentsModule_declarations</title>
<polygon fill="none" stroke="#000000" points="27,-78 27,-130 935,-130 935,-78 27,-78"/>
</g>
<g id="clust10" class="cluster">
<title>cluster_ComponentsModule_exports</title>
<polygon fill="none" stroke="#000000" points="16,-208 16,-260 942,-260 942,-208 16,-208"/>
</g>
<!-- DayFourComponent -->
<g id="node1" class="node">
<title>DayFourComponent</title>
<polygon fill="#ffffb3" stroke="#000000" points="926.5968,-122 795.4032,-122 795.4032,-86 926.5968,-86 926.5968,-122"/>
<text text-anchor="middle" x="861" y="-99.8" font-family="Times,serif" font-size="14.00" fill="#000000">DayFourComponent</text>
</g>
<!-- ComponentsModule -->
<g id="node7" class="node">
<title>ComponentsModule</title>
<polygon fill="#8dd3c7" stroke="#000000" points="479.3272,-187 476.3272,-191 455.3272,-191 452.3272,-187 348.6728,-187 348.6728,-151 479.3272,-151 479.3272,-187"/>
<text text-anchor="middle" x="414" y="-164.8" font-family="Times,serif" font-size="14.00" fill="#000000">ComponentsModule</text>
</g>
<!-- DayFourComponent&#45;&gt;ComponentsModule -->
<g id="edge1" class="edge">
<title>DayFourComponent&#45;&gt;ComponentsModule</title>
<path fill="none" stroke="#000000" d="M884.2661,-122.2222C884.2661,-140.8285 884.2661,-167 884.2661,-167 884.2661,-167 489.3885,-167 489.3885,-167"/>
<polygon fill="#000000" stroke="#000000" points="489.3885,-163.5001 479.3885,-167 489.3885,-170.5001 489.3885,-163.5001"/>
</g>
<!-- DayOneComponent -->
<g id="node2" class="node">
<title>DayOneComponent</title>
<polygon fill="#ffffb3" stroke="#000000" points="776.9748,-122 649.0252,-122 649.0252,-86 776.9748,-86 776.9748,-122"/>
<text text-anchor="middle" x="713" y="-99.8" font-family="Times,serif" font-size="14.00" fill="#000000">DayOneComponent</text>
</g>
<!-- DayOneComponent&#45;&gt;ComponentsModule -->
<g id="edge2" class="edge">
<title>DayOneComponent&#45;&gt;ComponentsModule</title>
<path fill="none" stroke="#000000" d="M734.7458,-122.0336C734.7458,-139.0597 734.7458,-162 734.7458,-162 734.7458,-162 489.2943,-162 489.2943,-162"/>
<polygon fill="#000000" stroke="#000000" points="489.2943,-158.5001 479.2943,-162 489.2943,-165.5001 489.2943,-158.5001"/>
</g>
<!-- DayThreeComponent -->
<g id="node3" class="node">
<title>DayThreeComponent</title>
<polygon fill="#ffffb3" stroke="#000000" points="630.7963,-122 493.2037,-122 493.2037,-86 630.7963,-86 630.7963,-122"/>
<text text-anchor="middle" x="562" y="-99.8" font-family="Times,serif" font-size="14.00" fill="#000000">DayThreeComponent</text>
</g>
<!-- DayThreeComponent&#45;&gt;ComponentsModule -->
<g id="edge3" class="edge">
<title>DayThreeComponent&#45;&gt;ComponentsModule</title>
<path fill="none" stroke="#000000" d="M584.8827,-122.2396C584.8827,-137.5706 584.8827,-157 584.8827,-157 584.8827,-157 489.579,-157 489.579,-157"/>
<polygon fill="#000000" stroke="#000000" points="489.579,-153.5001 479.579,-157 489.579,-160.5001 489.579,-153.5001"/>
</g>
<!-- DayTwoComponent -->
<g id="node4" class="node">
<title>DayTwoComponent</title>
<polygon fill="#ffffb3" stroke="#000000" points="475.3132,-122 344.6868,-122 344.6868,-86 475.3132,-86 475.3132,-122"/>
<text text-anchor="middle" x="410" y="-99.8" font-family="Times,serif" font-size="14.00" fill="#000000">DayTwoComponent</text>
</g>
<!-- DayTwoComponent&#45;&gt;ComponentsModule -->
<g id="edge4" class="edge">
<title>DayTwoComponent&#45;&gt;ComponentsModule</title>
<path fill="none" stroke="#000000" d="M411.9965,-122.1061C411.9965,-122.1061 411.9965,-140.991 411.9965,-140.991"/>
<polygon fill="#000000" stroke="#000000" points="408.4966,-140.9909 411.9965,-150.991 415.4966,-140.991 408.4966,-140.9909"/>
</g>
<!-- PofpsCertComponent -->
<g id="node5" class="node">
<title>PofpsCertComponent</title>
<polygon fill="#ffffb3" stroke="#000000" points="326.823,-122 189.177,-122 189.177,-86 326.823,-86 326.823,-122"/>
<text text-anchor="middle" x="258" y="-99.8" font-family="Times,serif" font-size="14.00" fill="#000000">PofpsCertComponent</text>
</g>
<!-- PofpsCertComponent&#45;&gt;ComponentsModule -->
<g id="edge5" class="edge">
<title>PofpsCertComponent&#45;&gt;ComponentsModule</title>
<path fill="none" stroke="#000000" d="M278.0538,-122.0091C278.0538,-138.0494 278.0538,-159 278.0538,-159 278.0538,-159 338.8141,-159 338.8141,-159"/>
<polygon fill="#000000" stroke="#000000" points="338.8142,-162.5001 348.8141,-159 338.8141,-155.5001 338.8142,-162.5001"/>
</g>
<!-- SummaryComponent -->
<g id="node6" class="node">
<title>SummaryComponent</title>
<polygon fill="#ffffb3" stroke="#000000" points="170.7716,-122 35.2284,-122 35.2284,-86 170.7716,-86 170.7716,-122"/>
<text text-anchor="middle" x="103" y="-99.8" font-family="Times,serif" font-size="14.00" fill="#000000">SummaryComponent</text>
</g>
<!-- SummaryComponent&#45;&gt;ComponentsModule -->
<g id="edge6" class="edge">
<title>SummaryComponent&#45;&gt;ComponentsModule</title>
<path fill="none" stroke="#000000" d="M167.2607,-122.2667C167.2607,-140.5552 167.2607,-166 167.2607,-166 167.2607,-166 338.5262,-166 338.5262,-166"/>
<polygon fill="#000000" stroke="#000000" points="338.5262,-169.5001 348.5262,-166 338.5262,-162.5001 338.5262,-169.5001"/>
</g>
<!-- DayFourComponent  -->
<g id="node8" class="node">
<title>DayFourComponent </title>
<polygon fill="#fb8072" stroke="#000000" points="934.0974,-252 799.9026,-252 799.9026,-216 934.0974,-216 934.0974,-252"/>
<text text-anchor="middle" x="867" y="-229.8" font-family="Times,serif" font-size="14.00" fill="#000000">DayFourComponent </text>
</g>
<!-- ComponentsModule&#45;&gt;DayFourComponent  -->
<g id="edge7" class="edge">
<title>ComponentsModule&#45;&gt;DayFourComponent </title>
<path fill="none" stroke="#000000" stroke-dasharray="5,2" d="M479.4674,-172C599.3585,-172 841.9839,-172 841.9839,-172 841.9839,-172 841.9839,-205.7333 841.9839,-205.7333"/>
<polygon fill="#000000" stroke="#000000" points="838.484,-205.7333 841.9839,-215.7333 845.484,-205.7333 838.484,-205.7333"/>
</g>
<!-- DayOneComponent  -->
<g id="node9" class="node">
<title>DayOneComponent </title>
<polygon fill="#fb8072" stroke="#000000" points="781.9757,-252 650.0243,-252 650.0243,-216 781.9757,-216 781.9757,-252"/>
<text text-anchor="middle" x="716" y="-229.8" font-family="Times,serif" font-size="14.00" fill="#000000">DayOneComponent </text>
</g>
<!-- ComponentsModule&#45;&gt;DayOneComponent  -->
<g id="edge8" class="edge">
<title>ComponentsModule&#45;&gt;DayOneComponent </title>
<path fill="none" stroke="#000000" stroke-dasharray="5,2" d="M479.2969,-177C561.6143,-177 692.5042,-177 692.5042,-177 692.5042,-177 692.5042,-205.9648 692.5042,-205.9648"/>
<polygon fill="#000000" stroke="#000000" points="689.0043,-205.9648 692.5042,-215.9648 696.0043,-205.9649 689.0043,-205.9648"/>
</g>
<!-- DayThreeComponent  -->
<g id="node10" class="node">
<title>DayThreeComponent </title>
<polygon fill="#fb8072" stroke="#000000" points="632.2961,-252 491.7039,-252 491.7039,-216 632.2961,-216 632.2961,-252"/>
<text text-anchor="middle" x="562" y="-229.8" font-family="Times,serif" font-size="14.00" fill="#000000">DayThreeComponent </text>
</g>
<!-- ComponentsModule&#45;&gt;DayThreeComponent  -->
<g id="edge9" class="edge">
<title>ComponentsModule&#45;&gt;DayThreeComponent </title>
<path fill="none" stroke="#000000" stroke-dasharray="5,2" d="M479.4901,-182C509.7624,-182 539.1173,-182 539.1173,-182 539.1173,-182 539.1173,-205.8129 539.1173,-205.8129"/>
<polygon fill="#000000" stroke="#000000" points="535.6174,-205.8129 539.1173,-215.8129 542.6174,-205.813 535.6174,-205.8129"/>
</g>
<!-- DayTwoComponent  -->
<g id="node11" class="node">
<title>DayTwoComponent </title>
<polygon fill="#fb8072" stroke="#000000" points="473.8129,-252 340.1871,-252 340.1871,-216 473.8129,-216 473.8129,-252"/>
<text text-anchor="middle" x="407" y="-229.8" font-family="Times,serif" font-size="14.00" fill="#000000">DayTwoComponent </text>
</g>
<!-- ComponentsModule&#45;&gt;DayTwoComponent  -->
<g id="edge10" class="edge">
<title>ComponentsModule&#45;&gt;DayTwoComponent </title>
<path fill="none" stroke="#000000" stroke-dasharray="5,2" d="M411.3715,-187.1061C411.3715,-187.1061 411.3715,-205.991 411.3715,-205.991"/>
<polygon fill="#000000" stroke="#000000" points="407.8716,-205.9909 411.3715,-215.991 414.8716,-205.991 407.8716,-205.9909"/>
</g>
<!-- PofpsCertComponent  -->
<g id="node12" class="node">
<title>PofpsCertComponent </title>
<polygon fill="#fb8072" stroke="#000000" points="322.3227,-252 181.6773,-252 181.6773,-216 322.3227,-216 322.3227,-252"/>
<text text-anchor="middle" x="252" y="-229.8" font-family="Times,serif" font-size="14.00" fill="#000000">PofpsCertComponent </text>
</g>
<!-- ComponentsModule&#45;&gt;PofpsCertComponent  -->
<g id="edge11" class="edge">
<title>ComponentsModule&#45;&gt;PofpsCertComponent </title>
<path fill="none" stroke="#000000" stroke-dasharray="5,2" d="M348.6513,-180C297.0514,-180 233.6962,-180 233.6962,-180 233.6962,-180 233.6962,-205.7181 233.6962,-205.7181"/>
<polygon fill="#000000" stroke="#000000" points="230.1963,-205.718 233.6962,-215.7181 237.1963,-205.7181 230.1963,-205.718"/>
</g>
<!-- SummaryComponent  -->
<g id="node13" class="node">
<title>SummaryComponent </title>
<polygon fill="#fb8072" stroke="#000000" points="163.7717,-252 24.2283,-252 24.2283,-216 163.7717,-216 163.7717,-252"/>
<text text-anchor="middle" x="94" y="-229.8" font-family="Times,serif" font-size="14.00" fill="#000000">SummaryComponent </text>
</g>
<!-- ComponentsModule&#45;&gt;SummaryComponent  -->
<g id="edge12" class="edge">
<title>ComponentsModule&#45;&gt;SummaryComponent </title>
<path fill="none" stroke="#000000" stroke-dasharray="5,2" d="M348.8095,-173C256.6539,-173 99.375,-173 99.375,-173 99.375,-173 99.375,-205.698 99.375,-205.698"/>
<polygon fill="#000000" stroke="#000000" points="95.8751,-205.698 99.375,-215.698 102.8751,-205.698 95.8751,-205.698"/>
</g>
</g>
</svg>
